<svg width="60" height="60" viewBox="0 0 60 60" fill="none" xmlns="http://www.w3.org/2000/svg">
<g id="Facebook" clip-path="url(#clip0_583_9229)">
<path id="Vector" d="M59.5189 29.9382C59.5189 13.6697 46.3306 0.481445 30.0622 0.481445C13.7937 0.481445 0.605469 13.6697 0.605469 29.9382C0.605469 44.6406 11.3773 56.8272 25.4596 59.037V38.453H17.9803V29.9382H25.4596V23.4485C25.4596 16.0659 29.8573 11.988 36.5859 11.988C39.8077 11.988 43.1796 12.5633 43.1796 12.5633V19.8124H39.4654C35.8062 19.8124 34.6648 22.0833 34.6648 24.415V29.9382H42.8344L41.5285 38.453H34.6648V59.037C48.7471 56.8272 59.5189 44.6406 59.5189 29.9382Z" fill="#1877F2"/>
<path id="Vector_2" d="M41.5287 38.4531L42.8346 29.9382H34.665V24.4151C34.665 22.0856 35.8064 19.8125 39.4656 19.8125H43.1798V12.5634C43.1798 12.5634 39.809 11.988 36.5861 11.988C29.8575 11.988 25.4598 16.066 25.4598 23.4485V29.9382H17.9805V38.4531H25.4598V59.037C28.5096 59.5142 31.6151 59.5142 34.665 59.037V38.4531H41.5287Z" fill="white"/>
</g>
<defs>
<clipPath id="clip0_583_9229">
<rect width="58.9134" height="58.9134" fill="white" transform="translate(0.605469 0.481445)"/>
</clipPath>
</defs>
</svg>
