<svg width="60" height="60" viewBox="0 0 60 60" fill="none" xmlns="http://www.w3.org/2000/svg">
<g id="Vk" clip-path="url(#clip0_583_9213)">
<path id="Vector" d="M0.728516 28.8834C0.728516 15.5528 0.728516 8.88754 4.8698 4.74626C9.01108 0.60498 15.6763 0.60498 29.007 0.60498H31.3635C44.6941 0.60498 51.3593 0.60498 55.5007 4.74626C59.6419 8.88754 59.6419 15.5528 59.6419 28.8834V31.24C59.6419 44.5706 59.6419 51.2358 55.5007 55.3772C51.3593 59.5184 44.6941 59.5184 31.3635 59.5184H29.007C15.6763 59.5184 9.01108 59.5184 4.8698 55.3772C0.728516 51.2358 0.728516 44.5706 0.728516 31.24V28.8834Z" fill="#0077FF"/>
<path id="Vector_2" d="M32.075 43.0474C18.6477 43.0474 10.989 33.8421 10.6699 18.5247H17.3959C17.6168 29.7673 22.5752 34.5295 26.5028 35.5114V18.5247H32.8362V28.2208C36.7147 27.8035 40.789 23.385 42.1637 18.5247H48.497C47.4415 24.5142 43.023 28.9327 39.8809 30.7492C43.023 32.222 48.0554 36.076 49.9701 43.0474H42.9984C41.501 38.3834 37.7702 34.7749 32.8362 34.284V43.0474H32.075Z" fill="white"/>
</g>
<defs>
<clipPath id="clip0_583_9213">
<rect width="58.9134" height="58.9134" fill="white" transform="translate(0.728516 0.60498)"/>
</clipPath>
</defs>
</svg>
