<svg width="60" height="60" viewBox="0 0 60 60" fill="none" xmlns="http://www.w3.org/2000/svg">
<g id="Youtube" clip-path="url(#clip0_583_9225)">
<path id="Vector" d="M58.4102 16.1795C58.077 14.9238 57.4207 13.7778 56.5065 12.8561C55.5925 11.9344 54.4528 11.2694 53.2016 10.9276C48.5957 9.68677 30.1852 9.68677 30.1852 9.68677C30.1852 9.68677 11.7748 9.68677 7.16882 10.9276C5.91763 11.2694 4.77798 11.9344 3.86391 12.8561C2.94983 13.7778 2.29342 14.9238 1.96035 16.1795C0.728516 20.8144 0.728516 30.4797 0.728516 30.4797C0.728516 30.4797 0.728516 40.1452 1.96035 44.7799C2.29342 46.0357 2.94983 47.1818 3.86391 48.1034C4.77798 49.0251 5.91763 49.6901 7.16882 50.0319C11.7748 51.2727 30.1852 51.2727 30.1852 51.2727C30.1852 51.2727 48.5957 51.2727 53.2016 50.0319C54.4528 49.6901 55.5925 49.0251 56.5065 48.1034C57.4207 47.1818 58.077 46.0357 58.4102 44.7799C59.6419 40.1452 59.6419 30.4797 59.6419 30.4797C59.6419 30.4797 59.6419 20.8144 58.4102 16.1795Z" fill="#FF0000"/>
<path id="Vector_2" d="M22.8203 38.2861L38.2182 29.5096L22.8203 20.7329V38.2861Z" fill="white"/>
</g>
<defs>
<clipPath id="clip0_583_9225">
<rect width="58.9134" height="58.9134" fill="white" transform="translate(0.728516 0.481445)"/>
</clipPath>
</defs>
</svg>
